<svg fill="#000000" xmlns="http://www.w3.org/2000/svg"  viewBox="0 0 50 50" width="50px" height="50px"><path d="M 5 5 A 1.0001 1.0001 0 0 0 4 6 L 4 44 A 1.0001 1.0001 0 0 0 5 45 L 8 45 A 1.0001 1.0001 0 1 0 8 43 L 6 43 L 6 7 L 8 7 A 1.0001 1.0001 0 1 0 8 5 L 5 5 z M 42 5 A 1.0001 1.0001 0 1 0 42 7 L 44 7 L 44 43 L 42 43 A 1.0001 1.0001 0 1 0 42 45 L 45 45 A 1.0001 1.0001 0 0 0 46 44 L 46 6 A 1.0001 1.0001 0 0 0 45 5 L 42 5 z M 31.089844 16.507812 C 29.807509 16.47924 28.504825 16.797015 27.410156 17.550781 C 27.054229 17.796378 26.803002 18.051416 26.513672 18.310547 C 26.07157 17.804287 25.579125 17.374368 25.015625 17.113281 C 24.113554 16.695325 23.139553 16.567151 22.169922 16.550781 C 21.084616 16.532101 20.121805 16.84274 19.324219 17.363281 C 19.184361 17.454561 19.08834 17.6113 18.957031 17.712891 A 1.0001 1.0001 0 0 0 18 17 L 14 17 A 1.0001 1.0001 0 0 0 13 18 L 13 32 A 1.0001 1.0001 0 0 0 14 33 L 18 33 A 1.0001 1.0001 0 0 0 19 31.998047 C 19 31.998047 18.99 28.115092 19 25.521484 C 19.0019 25.083952 19.02269 24.678807 19.09375 24.337891 C 19.293997 23.378776 19.899573 22.917573 20.876953 22.996094 C 21.384799 23.037034 21.560115 23.147257 21.693359 23.306641 C 21.826604 23.466024 21.972075 23.812423 22 24.490234 C 21.9958 24.382578 22.003406 25.028093 22.003906 25.748047 C 22.004421 26.468001 22.004594 27.402065 22.003906 28.328125 C 22.002538 30.180246 22 31.998047 22 31.998047 A 1.0001 1.0001 0 0 0 23 33 L 27 33 A 1.0001 1.0001 0 0 0 28 32 L 28 25.583984 C 28.0054 25.048258 28.06227 24.508719 28.183594 24.023438 C 28.294384 23.581636 28.478431 23.352077 28.734375 23.191406 C 28.990319 23.030736 29.366658 22.934264 29.908203 22.994141 A 1.0001 1.0001 0 0 0 29.910156 22.994141 C 30.381495 23.046141 30.576562 23.160965 30.707031 23.304688 C 30.836696 23.447523 30.962094 23.715322 31 24.255859 L 31 32 A 1.0001 1.0001 0 0 0 32 33 L 36 33 A 1.0001 1.0001 0 0 0 37 32 L 37 22 C 37 20.927576 36.66368 20.091426 36.337891 19.435547 C 35.573964 17.896612 34.014316 16.981272 32.357422 16.648438 C 31.943198 16.565229 31.517289 16.517337 31.089844 16.507812 z M 31.056641 18.511719 C 31.361647 18.516942 31.667505 18.549646 31.964844 18.609375 C 33.1542 18.848291 34.138802 19.504107 34.546875 20.326172 C 34.827086 20.890293 35 21.312424 35 22 L 35 31 L 33 31 L 33 24.193359 A 1.0001 1.0001 0 0 0 32.998047 24.126953 C 32.942067 23.299323 32.70928 22.535716 32.1875 21.960938 C 31.66572 21.386159 30.917567 21.092862 30.128906 21.005859 C 29.241451 20.907739 28.379681 21.051759 27.671875 21.496094 C 26.964069 21.940423 26.45935 22.678911 26.244141 23.537109 A 1.0001 1.0001 0 0 0 26.244141 23.539062 C 26.075508 24.213739 26.006634 24.900227 26 25.5625 A 1.0001 1.0001 0 0 0 26 25.572266 L 26 31 L 24.001953 31 C 24.002821 30.375092 24.002859 29.677539 24.003906 28.330078 C 24.004594 27.403514 24.004423 26.467921 24.003906 25.746094 C 24.00339 25.024267 24.0097 24.657312 24 24.410156 A 1.0001 1.0001 0 0 0 24 24.408203 C 23.96193 23.484014 23.761771 22.661303 23.228516 22.023438 C 22.69526 21.385571 21.883217 21.071963 21.039062 21.003906 A 1.0001 1.0001 0 0 0 21.037109 21.003906 C 19.176489 20.854427 17.516472 22.108849 17.136719 23.927734 A 1.0001 1.0001 0 0 0 17.136719 23.929688 C 17.019768 24.490772 17.002106 25.027204 17 25.513672 C 16.9915 27.717572 16.998 30.090187 17 31 L 15 31 L 15 19 L 17 19 L 17 20 A 1.0001 1.0001 0 0 0 18.767578 20.640625 C 19.369265 19.919178 19.900102 19.375771 20.416016 19.039062 C 20.931929 18.702354 21.421025 18.538462 22.136719 18.550781 C 22.944087 18.564411 23.6374 18.681143 24.173828 18.929688 C 24.710257 19.178231 25.116846 19.530185 25.455078 20.205078 A 1.0001 1.0001 0 0 0 27 20.517578 C 27.608572 19.996099 28.081994 19.516915 28.544922 19.197266 C 29.230003 18.725532 30.141622 18.496049 31.056641 18.511719 z"/></svg>