<?xml version="1.0" standalone="no"?>
<!DOCTYPE svg PUBLIC "-//W3C//DTD SVG 20010904//EN"
 "http://www.w3.org/TR/2001/REC-SVG-20010904/DTD/svg10.dtd">
<svg version="1.0" xmlns="http://www.w3.org/2000/svg"
 width="32.000000pt" height="32.000000pt" viewBox="0 0 32.000000 32.000000"
 preserveAspectRatio="xMidYMid meet">
<metadata>
Created by potrace 1.10, written by Peter Selinger 2001-2011
</metadata>
<g transform="translate(0.000000,32.000000) scale(0.100000,-0.100000)"
fill="#000000" stroke="none">
<path d="M63 298 c-30 -14 -32 -64 -4 -73 11 -3 21 -15 23 -26 4 -28 22 -24
26 6 2 17 -1 25 -12 25 -18 0 -22 35 -5 46 6 3 16 1 22 -6 9 -10 9 -11 0 -6
-16 9 -17 -16 -2 -31 18 -18 39 -3 39 26 0 20 -7 31 -25 39 -30 14 -33 14 -62
0z"/>
<path d="M160 246 c0 -12 40 -36 60 -36 21 0 8 17 -25 33 -27 13 -35 14 -35 3z"/>
<path d="M246 253 c-3 -3 -6 -15 -6 -25 0 -12 -19 -28 -57 -47 -32 -17 -54
-30 -50 -31 4 0 21 7 38 15 16 9 33 13 38 10 5 -2 12 2 15 11 5 12 10 14 20 5
7 -6 16 -8 19 -4 4 3 7 2 7 -3 0 -6 -25 -22 -55 -37 l-55 -27 -68 34 c-45 24
-60 35 -44 36 12 0 22 5 22 10 0 13 -3 13 -35 -2 -24 -11 -26 -16 -23 -62 l3
-51 73 -38 72 -38 73 38 72 38 3 52 c3 44 0 52 -18 58 -13 4 -20 15 -20 30 0
25 -12 39 -24 28z m45 -114 c-6 -38 -11 -43 -68 -76 -51 -28 -63 -32 -63 -18
0 10 -4 13 -12 8 -25 -15 -37 -11 -47 17 -5 16 -23 36 -40 44 -28 15 -30 15
-34 -7 -3 -12 -4 -3 -3 20 0 24 4 43 8 43 4 0 23 -8 43 -17 24 -11 35 -23 35
-38 0 -14 10 -26 25 -33 35 -16 115 21 115 53 0 13 10 27 23 33 12 6 22 11 23
11 0 1 -2 -17 -5 -40z m-61 -8 c0 -5 -16 -18 -35 -30 -24 -14 -35 -16 -35 -7
0 7 15 20 33 29 39 19 37 19 37 8z m-154 -46 c10 -8 14 -15 8 -15 -5 0 -19 7
-30 15 -10 8 -14 15 -8 15 5 0 19 -7 30 -15z"/>
</g>
</svg>
