<?xml version="1.0" encoding="iso-8859-1"?>
<!-- Generator: Adobe Illustrator 16.0.0, SVG Export Plug-In . SVG Version: 6.00 Build 0)  -->
<!DOCTYPE svg PUBLIC "-//W3C//DTD SVG 1.1//EN" "http://www.w3.org/Graphics/SVG/1.1/DTD/svg11.dtd">
<svg version="1.1" id="Capa_1" xmlns="http://www.w3.org/2000/svg" xmlns:xlink="http://www.w3.org/1999/xlink" x="0px" y="0px"
	 width="876px" height="876px" viewBox="0 0 876 876" style="enable-background:new 0 0 876 876;" xml:space="preserve">
<g>
	<circle cx="438" cy="438" r="246"/>
	<path d="M420.5,163h35c11.046,0,20-8.954,20-20V20c0-11.046-8.954-20-20-20h-35c-11.046,0-20,8.954-20,20v123
		C400.5,154.046,409.454,163,420.5,163z"/>
	<path d="M713,420.5v35c0,11.046,8.954,20,20,20h123c11.046,0,20-8.954,20-20v-35c0-11.046-8.954-20-20-20H733
		C721.954,400.5,713,409.454,713,420.5z"/>
	<path d="M455.5,876c11.046,0,20-8.954,20-20V733c0-11.046-8.954-20-20-20h-35c-11.046,0-20,8.954-20,20v123
		c0,11.046,8.954,20,20,20H455.5z"/>
	<path d="M20,475.5h123c11.046,0,20-8.954,20-20v-35c0-11.046-8.954-20-20-20H20c-11.046,0-20,8.954-20,20v35
		C0,466.546,8.954,475.5,20,475.5z"/>
	<path d="M644.829,255.92c7.811,7.81,20.474,7.811,28.284,0l86.975-86.974c7.811-7.812,7.811-20.474,0-28.284l-24.749-24.749
		c-7.811-7.811-20.474-7.811-28.284,0l-86.975,86.974c-7.812,7.81-7.812,20.474,0,28.284L644.829,255.92z"/>
	<path d="M735.338,760.087l24.749-24.749c7.811-7.81,7.811-20.474,0-28.284l-86.975-86.974c-7.812-7.811-20.475-7.811-28.284,0
		l-24.749,24.749c-7.812,7.811-7.812,20.474,0,28.284l86.975,86.974C714.865,767.898,727.528,767.898,735.338,760.087z"/>
	<path d="M168.946,760.087l86.975-86.974c7.812-7.811,7.812-20.475,0-28.284l-24.749-24.749c-7.811-7.811-20.474-7.811-28.284,0
		l-86.975,86.974c-7.811,7.812-7.811,20.475,0,28.284l24.749,24.749C148.472,767.898,161.135,767.898,168.946,760.087z"/>
	<path d="M202.887,255.92c7.811,7.811,20.474,7.81,28.284,0l24.749-24.749c7.812-7.81,7.812-20.474,0-28.284l-86.975-86.974
		c-7.811-7.811-20.474-7.811-28.284,0l-24.749,24.749c-7.811,7.81-7.811,20.474,0,28.284L202.887,255.92z"/>
</g>
<g>
</g>
<g>
</g>
<g>
</g>
<g>
</g>
<g>
</g>
<g>
</g>
<g>
</g>
<g>
</g>
<g>
</g>
<g>
</g>
<g>
</g>
<g>
</g>
<g>
</g>
<g>
</g>
<g>
</g>
</svg>
